<?xml version="1.0" encoding="UTF-8"?>
<svg width="256px" height="256px" viewBox="0 0 256 256" version="1.1" xmlns="http://www.w3.org/2000/svg" xmlns:xlink="http://www.w3.org/1999/xlink">
    <!-- Generator: Sketch 52.5 (67469) - http://www.bohemiancoding.com/sketch -->
    <title>High dpi icon</title>
    <desc>Created with Sketch.</desc>
    <defs>
        <linearGradient x1="24.2518297%" y1="22.5364603%" x2="78.5717275%" y2="75.9582442%" id="linearGradient-1">
            <stop stop-color="#70A1FF" offset="0%"></stop>
            <stop stop-color="#7073FF" offset="100%"></stop>
        </linearGradient>
    </defs>
    <g id="High-dpi-icon" stroke="none" stroke-width="1" fill="none" fill-rule="evenodd">
        <rect fill="#FFFFFF" x="0" y="0" width="256" height="256"></rect>
        <g id="Logo" transform="translate(54.000000, 54.000000)" fill="url(#linearGradient-1)" fill-rule="nonzero">
            <g id="Logo-/-Colored">
                <path d="M36.9402345,115.453259 L53.2801362,99.1133571 C65.2050018,107.433573 81.7357611,106.273461 92.3762003,95.6330216 C104.318715,83.6905072 104.318715,64.3278656 92.3762003,52.3853513 C80.4336859,40.4428369 61.0710443,40.4428369 49.12853,52.3853513 C38.4880908,63.0257904 37.327979,79.5565498 45.6481944,91.4814153 L29.3082926,107.821317 L4.3361546,82.849179 C-1.44538487,77.0676395 -1.44538487,67.693912 4.3361546,61.9123725 L61.9123725,4.3361546 C67.693912,-1.44538487 77.0676395,-1.44538487 82.849179,4.3361546 L140.425397,61.9123725 C146.206936,67.693912 146.206936,77.0676395 140.425397,82.849179 L82.849179,140.425397 C77.0676395,146.206936 67.693912,146.206936 61.9123725,140.425397 L36.9402345,115.453259 Z M70.7523651,93.7967117 C59.8240166,93.7967117 50.9648398,84.9375349 50.9648398,74.0091864 C50.9648398,63.0808379 59.8240166,54.2216611 70.7523651,54.2216611 C81.6807136,54.2216611 90.5398904,63.0808379 90.5398904,74.0091864 C90.5398904,84.9375349 81.6807136,93.7967117 70.7523651,93.7967117 Z" id="Combined-Shape"></path>
            </g>
        </g>
    </g>
</svg>